<?xml version="1.0" encoding="UTF-8" standalone="no"?><!-- Generator: Gravit.io --><svg xmlns="http://www.w3.org/2000/svg" xmlns:xlink="http://www.w3.org/1999/xlink" style="isolation:isolate" viewBox="0 0 640 512" width="640pt" height="512pt"><defs><clipPath id="_clipPath_hLm5uWLVNLxyCsfPrnSBt6n0QMf7ojQ1"><rect width="640" height="512"/></clipPath></defs><g clip-path="url(#_clipPath_hLm5uWLVNLxyCsfPrnSBt6n0QMf7ojQ1)"><path d=" M 224 256 C 294.7 256 352 198.7 352 128 C 352 57.3 294.7 0 224 0 C 153.3 0 96 57.3 96 128 C 96 198.7 153.3 256 224 256 Z  M 313.6 288 L 296.9 288 C 274.7 298.2 250 304 224 304 C 198 304 173.4 298.2 151.1 288 L 134.4 288 C 60.2 288 0 348.2 0 422.4 L 0 464 C 0 490.5 21.5 512 48 512 L 400 512 C 426.5 512 448 490.5 448 464 L 448 422.4 C 448 348.2 387.8 288 313.6 288 Z  M 636.6 159.6 L 608.8 131.5 C 604.2 126.8 596.7 126.8 592 131.4 L 487.2 235.4 L 441.7 189.6 C 437.1 184.9 429.6 184.9 424.9 189.5 L 396.8 217.4 C 392.1 222 392.1 229.5 396.7 234.2 L 478.4 316.5 C 483 321.2 490.5 321.2 495.2 316.6 L 636.5 176.4 C 641.1 171.7 641.2 164.2 636.6 159.6 L 636.6 159.6 Z " fill="rgb(255,255,255)"/></g></svg>